<svg xmlns="http://www.w3.org/2000/svg" width="250" height="250" preserveAspectRatio="xMidYMid meet" viewBox="0 0 250 250"><path fill="#00A8E5" d="M149.2 140.1l-2.9 35.9L94 159.9l15.7-30.7L125 132c3.8 6.2 7.3 11.4 9.9 14.9l5.1 7.2 4.9-7.4c1.4-2.1 2.8-4.3 4.3-6.6zm-76.1-2.5l-29.9 36.1 46.4-13.4 15.6-30.5-32.1 7.8zm109.9-7.7l-30.2 6.2-3.2 39.6 48.7-9.6-15.3-36.2zm-36.2 46.3l.3-.1-.7-.1.4.2zm25.8-105.6c0 1.6-.1 3.2-.3 4.7 0 0-.1.5-.1.7-3.7 23.6-22.8 53-32.3 67.4-10.4-14.8-28.8-44.2-32.4-68.1-.2-1.5-.3-3.1-.3-4.7 0-18.1 14.7-32.7 32.7-32.7 18 0 32.7 14.7 32.7 32.7zm-10.7 0c0-12.2-9.9-22.1-22.1-22.1-12.2 0-22.1 9.9-22.1 22.1 0 12.2 9.9 22.1 22.1 22.1 12.2 0 22.1-9.9 22.1-22.1z"/><path fill="#00A8E5" d="M125 246.9C57.8 246.9 3.1 192.2 3.1 125S57.8 3.1 125 3.1 246.9 57.8 246.9 125 192.2 246.9 125 246.9zm0-233.8C63.3 13.1 13.1 63.3 13.1 125S63.3 236.9 125 236.9 236.9 186.7 236.9 125 186.7 13.1 125 13.1z"/></svg>
