<svg xmlns="http://www.w3.org/2000/svg" viewBox="0 0 83.32 83.32"><defs><style>.cls-1{fill:#1d1d1d;}</style></defs><title>parkinglot</title><g id="Capa_2" data-name="Capa 2"><g id="Layer_1" data-name="Layer 1"><path class="cls-1" d="M59.64,29.6c-.1,0-.17.13-.17.3s.07.3.17.3.17-.13.17-.3S59.73,29.6,59.64,29.6Z"/><path class="cls-1" d="M56.84,44.1a30.61,30.61,0,0,0,.76,4l.83.1s-.51-2.8-.65-3.94C57.8,44.29,57.16,44.19,56.84,44.1Z"/><path class="cls-1" d="M60.85,48.23l.83-.1a30.61,30.61,0,0,0,.76-4c-.32.09-1,.19-.94.19C61.36,45.43,60.89,48.22,60.85,48.23Z"/><path class="cls-1" d="M55.1,46.69a2.62,2.62,0,0,0,.53.58,5.3,5.3,0,0,0,.65.44.69.69,0,0,0-.19-1C55.7,46.38,55.33,46.41,55.1,46.69Z"/><path class="cls-1" d="M63.19,46.7a.68.68,0,0,0-.19,1,5.3,5.3,0,0,0,.65-.44,2.62,2.62,0,0,0,.53-.58C64,46.41,63.58,46.38,63.19,46.7Z"/><path class="cls-1" d="M64.16,41.36v0c0-.69,0-3.53-.09-5.26s-.18-5.65-.17-6.45A1.59,1.59,0,0,0,63,27.82a8.36,8.36,0,0,0-6.79,0,1.62,1.62,0,0,0-.87,1.78c0,.8-.09,4.77-.16,6.45-.05,1.5-.1,3.84-.1,4.88v.43a2,2,0,0,0,.8,2,9.37,9.37,0,0,0,7.44,0A2,2,0,0,0,64.16,41.36Zm-3.11-.65a9.09,9.09,0,0,1-2.82,0,3.69,3.69,0,0,1-2.14-.88.88.88,0,0,1-.22-.6,1.42,1.42,0,0,1,0-.15c0-.07.11-8.57.13-9.12,0-1.33,1.26-2,3.63-2s3.59.67,3.63,2c0,.55.13,9,.13,9.13a.93.93,0,0,1-.21.74A3.69,3.69,0,0,1,61.05,40.71Z"/><path class="cls-1" d="M20.41,66.56h-.75v1.19h.75a.58.58,0,0,0,.43-.17.57.57,0,0,0,.15-.42.59.59,0,0,0-.16-.43A.56.56,0,0,0,20.41,66.56Z"/><path class="cls-1" d="M41.9,32.94H39.57v3.7H41.9a2,2,0,0,0,1.39-.46,1.85,1.85,0,0,0,.5-1.43,1.75,1.75,0,0,0-.51-1.4A2.07,2.07,0,0,0,41.9,32.94Z"/><path class="cls-1" d="M29.86,66.56h-.74v1.19h.74a.55.55,0,0,0,.43-.17.54.54,0,0,0,.16-.42.59.59,0,0,0-.16-.43A.58.58,0,0,0,29.86,66.56Z"/><polygon class="cls-1" points="24.32 68.83 25.48 68.83 24.9 67.08 24.32 68.83"/><path class="cls-1" d="M58.36,66.68a1.2,1.2,0,0,0-.94.39,1.68,1.68,0,0,0,0,2.05,1.2,1.2,0,0,0,.94.39,1.22,1.22,0,0,0,1-.39,1.68,1.68,0,0,0,0-2.05A1.22,1.22,0,0,0,58.36,66.68Z"/><path class="cls-1" d="M76,3.78H7.37A3.61,3.61,0,0,0,3.78,7.37V76a3.6,3.6,0,0,0,3.59,3.59H76A3.59,3.59,0,0,0,79.54,76V7.37A3.6,3.6,0,0,0,76,3.78ZM62.85,21.59h1.29V22.9H62.85Zm-2.57,0H61.6V22.9H60.28Zm-2.57,0H59V22.9H57.71Zm-2.57,0h1.31V22.9H55.14Zm-7.72,0h1.32V22.9H47.42Zm-2.57,0h1.32V22.9H44.85Zm-2.57,0h1.34V22.9H42.28Zm-2.58,0h1.35V22.9H39.7Zm-5.11,0H35.9V22.9H34.59Zm-5.15,0h1.32V22.9H29.44Zm-2.57,0h1.32V22.9H26.87Zm-2.57,0h1.31V22.9H24.3Zm-2.58,0H23V22.9H21.72Zm-2.54,0h1.29V22.9H19.18ZM15.35,49.81v1.27H14V49.79h1.31Zm0-2.56v1.28H14v-1.3h1.31Zm0-2.57V46H14V44.66h1.31Zm0-2.56V43.4H14V42.1h1.31Zm0-2.57v1.27H14V39.55h1.31Zm0-2.56v1.27H14V37h1.31Zm0-2.57v1.29H14V34.42h1.31Zm0-2.56v1.27H14V31.84h1.31Zm0-2.57v1.29H14V29.29h1.31Zm0-2.56V28H14V26.71h1.31Zm0-2.56v1.28H14v-1.3h1.31Zm0-2.57v1.27h0v0H14v0h0V21.6h1.31Zm2.55,1.3H16.61V21.59H17.9Zm4,45.22a1.46,1.46,0,0,1-.57.38,2.35,2.35,0,0,1-.88.15h-.75v1.92H18.47V65.65h1.94a1.9,1.9,0,0,1,1.33.44,1.43,1.43,0,0,1,.47,1.07A1.6,1.6,0,0,1,21.86,68.12Zm4.2,2.45-.28-.83H24l-.27.83H22.47l1.71-4.93h1.46l1.7,4.93Zm4.31,0-1.11-1.92h-.14v1.92H27.93V65.65h1.93a1.89,1.89,0,0,1,1.33.44,1.41,1.41,0,0,1,.48,1.07,1.56,1.56,0,0,1-.26.83,1.38,1.38,0,0,1-.85.57l1.21,2Zm1.64-49h1.32V22.9H32ZM33.32,46H32V44.66h1.31V46h0Zm0,1.27v1.3H32v-1.3h1.31Zm0-3.83H32V42.1h1.31v1.3Zm0-2.57H32V39.55h1.31v1.27h0Zm0-2.56H32V37h1.31v1.29h0Zm0-2.56H32V34.42h1.31v1.29Zm0-2.57H32V31.84h1.31v1.29h0Zm0-2.56H32V29.29h1.31v1.29Zm0-2.57H32V26.71h1.31V28h0Zm0-2.56H32v-1.3h1.31v1.3ZM32,51.09h0V49.79h1.31v1.29H32Zm5,19.48H35.45L33.8,68.4v2.17H32.6V65.65h1.2v2.16l1.62-2.16H37l-2,2.46Zm.17-47.67h0V21.59h1.31V22.9H37.16Zm1.68,47.67h-1.2V65.65h1.2Zm5.44,0H43.09l-2-3.1v3.1H39.89V65.64h1.19l2,3.1v-3.1h1.19ZM42.13,38.39H39.57v4.2H37.41V31.17h4.88A3.93,3.93,0,0,1,45,32a3.4,3.4,0,0,1,1,2.7,3.51,3.51,0,0,1-1,2.82A4.34,4.34,0,0,1,42.13,38.39Zm4.49,30.73a1.21,1.21,0,0,0,1,.39,1.09,1.09,0,0,0,.69-.21,1.07,1.07,0,0,0,.36-.58H47.24v-.91h2.67v.91A2.42,2.42,0,0,1,49.18,70a2.21,2.21,0,0,1-.71.45,2.33,2.33,0,0,1-.9.18,2.48,2.48,0,0,1-1.79-.71,2.6,2.6,0,0,1,0-3.61,2.48,2.48,0,0,1,1.79-.71A2.51,2.51,0,0,1,49,66a2.25,2.25,0,0,1,.89,1.2H48.48a.93.93,0,0,0-.89-.54,1.24,1.24,0,0,0-1,.39,1.68,1.68,0,0,0,0,2.05ZM51.3,49.81v1.27H50V49.79H51.3Zm0-2.56v1.28H50v-1.3H51.3Zm0-2.57V46H50V44.66H51.3Zm0-2.56V43.4H50V42.1H51.3Zm0-2.57v1.27H50V39.55H51.3Zm0-2.56v1.27H50V37H51.3Zm0-2.57v1.29H50V34.42H51.3Zm0-2.56v1.27H50V31.84H51.3Zm0-2.57v1.29H50V29.29H51.3Zm0-2.56V28H50V26.71H51.3Zm0-2.56v1.28H50v-1.3H51.3Zm0-1.27H50V21.59h1.32Zm1.25,0V21.59h1.32V22.9H52.56Zm2.91,47.67H52.78V65.65H54v4h1.49Zm4.68-.67a2.54,2.54,0,0,1-3.57-3.61,2.61,2.61,0,0,1,3.58,0,2.45,2.45,0,0,1,.72,1.81A2.4,2.4,0,0,1,60.15,69.9Zm5-3.34H63.85v4h-1.2v-4H61.32v-.91h3.87Zm.47-26.11a.9.9,0,0,1-1,.17v4.92a2.33,2.33,0,0,1-1.11,2.18l-.11.09c-1,.81-3.33.85-3.79.86s-2.78-.05-3.79-.86l-.11-.09a2.33,2.33,0,0,1-1.11-2.18V40.62a.91.91,0,0,1-1-.17.6.6,0,0,1-.16-.42.81.81,0,0,1,.1-.39c0-.06.15,0,.6,0a2.59,2.59,0,0,0,.47.06c0-.69,0-1.72,0-2.81,0-2.61,0-5.87,0-6.86a3.21,3.21,0,0,1,.58-2.48c.38-.37,1.45-1,4.43-1s4,.63,4.43,1a3.17,3.17,0,0,1,.58,2.47c-.05,1,0,4.25,0,6.86,0,1.09,0,2.12,0,2.81a2.59,2.59,0,0,0,.47-.06c.45-.08.57-.09.6,0A.7.7,0,0,1,65.66,40.45Zm1-17.55H65.43V21.59h1.28Zm2.57,26.91v1.27H68V49.79h1.3Zm0-2.56v1.28H68v-1.3h1.3Zm0-2.57V46H68V44.66h1.3Zm0-2.56V43.4H68V42.1h1.3Zm0-2.57v1.27H68V39.55h1.3Zm0-2.56v1.27H68V37h1.3Zm0-2.57v1.29H68V34.42h1.3Zm0-2.56v1.27H68V31.84h1.3Zm0-2.57v1.29H68V29.29h1.3Zm0-2.56V28H68V26.71h1.3Zm0-2.56v1.28H68v-1.3h1.3Zm0-2.58h0v1.27h0v0H68v0h0V21.6h1.3Z"/><path class="cls-1" d="M79.37,0H4A4,4,0,0,0,0,4V79.38a4,4,0,0,0,4,3.94H79.37a4,4,0,0,0,3.95-3.94V4A4,4,0,0,0,79.37,0Zm1.39,77.06a3.72,3.72,0,0,1-3.7,3.7H6.27a3.72,3.72,0,0,1-3.71-3.7V6.27A3.72,3.72,0,0,1,6.27,2.56H77.06a3.72,3.72,0,0,1,3.7,3.71Z"/></g></g></svg>